<svg width="36" height="36" viewBox="0 0 36 36" fill="none" xmlns="http://www.w3.org/2000/svg">
<circle cx="18" cy="18" r="17.5" fill="#9FD357" stroke="#EAEAEA"/>
<path d="M21 11C21 9.34315 19.6569 8 18 8C16.3431 8 15 9.34315 15 11V16C15 17.6569 16.3431 19 18 19C19.6569 19 21 17.6569 21 16V11Z" stroke="white" stroke-width="1.5" stroke-linecap="round" stroke-linejoin="round"/>
<path d="M11 16C11 17.8565 11.7375 19.637 13.0503 20.9497C14.363 22.2625 16.1435 23 18 23C19.8565 23 21.637 22.2625 22.9497 20.9497C24.2625 19.637 25 17.8565 25 16" stroke="white" stroke-width="1.5" stroke-linecap="round" stroke-linejoin="round"/>
<path d="M14 27H22" stroke="white" stroke-width="1.5" stroke-linecap="round" stroke-linejoin="round"/>
<path d="M18 23V27" stroke="white" stroke-width="1.5" stroke-linecap="round" stroke-linejoin="round"/>
</svg>
